<mxfile host="app.diagrams.net" modified="2024-04-23T23:14:34.788Z" agent="Mozilla/5.0 (Windows NT 10.0; Win64; x64) AppleWebKit/537.36 (KHTML, like Gecko) Chrome/124.0.0.0 Safari/537.36" etag="Yf0qRPszRwRzL54EOj74" version="24.2.5" type="device">
  <diagram name="PÃ¡gina-1" id="owEQIOYcwdbkl2skg05B">
    <mxGraphModel dx="1134" dy="649" grid="1" gridSize="10" guides="1" tooltips="1" connect="1" arrows="1" fold="1" page="1" pageScale="1" pageWidth="827" pageHeight="1169" math="0" shadow="0">
      <root>
        <mxCell id="0" />
        <mxCell id="1" parent="0" />
        <mxCell id="eodFmWcLu5V-pJiBf92P-5" style="edgeStyle=orthogonalEdgeStyle;rounded=0;orthogonalLoop=1;jettySize=auto;html=1;exitX=1;exitY=0.5;exitDx=0;exitDy=0;exitPerimeter=0;" edge="1" parent="1" source="eodFmWcLu5V-pJiBf92P-2" target="eodFmWcLu5V-pJiBf92P-3">
          <mxGeometry relative="1" as="geometry" />
        </mxCell>
        <mxCell id="eodFmWcLu5V-pJiBf92P-2" value="INDEX" style="verticalLabelPosition=bottom;html=1;verticalAlign=top;align=center;strokeColor=none;fillColor=#00BEF2;shape=mxgraph.azure.file_2;pointerEvents=1;" vertex="1" parent="1">
          <mxGeometry x="100" y="30" width="85.5" height="90" as="geometry" />
        </mxCell>
        <mxCell id="eodFmWcLu5V-pJiBf92P-13" value="" style="edgeStyle=orthogonalEdgeStyle;rounded=0;orthogonalLoop=1;jettySize=auto;html=1;" edge="1" parent="1" source="eodFmWcLu5V-pJiBf92P-3" target="eodFmWcLu5V-pJiBf92P-11">
          <mxGeometry relative="1" as="geometry" />
        </mxCell>
        <mxCell id="eodFmWcLu5V-pJiBf92P-14" value="" style="edgeStyle=orthogonalEdgeStyle;rounded=0;orthogonalLoop=1;jettySize=auto;html=1;" edge="1" parent="1" source="eodFmWcLu5V-pJiBf92P-3" target="eodFmWcLu5V-pJiBf92P-4">
          <mxGeometry relative="1" as="geometry" />
        </mxCell>
        <mxCell id="eodFmWcLu5V-pJiBf92P-3" value="LOGIN" style="verticalLabelPosition=bottom;html=1;verticalAlign=top;align=center;strokeColor=none;fillColor=#00BEF2;shape=mxgraph.azure.file_2;pointerEvents=1;" vertex="1" parent="1">
          <mxGeometry x="260" y="30" width="85.5" height="90" as="geometry" />
        </mxCell>
        <mxCell id="eodFmWcLu5V-pJiBf92P-4" value="CADASTRO&lt;div&gt;&lt;br&gt;&lt;/div&gt;" style="verticalLabelPosition=bottom;html=1;verticalAlign=top;align=center;strokeColor=none;fillColor=#00BEF2;shape=mxgraph.azure.file_2;pointerEvents=1;" vertex="1" parent="1">
          <mxGeometry x="260" y="170" width="85.5" height="90" as="geometry" />
        </mxCell>
        <mxCell id="eodFmWcLu5V-pJiBf92P-15" style="edgeStyle=orthogonalEdgeStyle;rounded=0;orthogonalLoop=1;jettySize=auto;html=1;exitX=0;exitY=0.5;exitDx=0;exitDy=0;exitPerimeter=0;" edge="1" parent="1" source="eodFmWcLu5V-pJiBf92P-6">
          <mxGeometry relative="1" as="geometry">
            <mxPoint x="520" y="74.66666666666663" as="targetPoint" />
          </mxGeometry>
        </mxCell>
        <mxCell id="eodFmWcLu5V-pJiBf92P-6" value="USUARIO_CONTROLLER" style="verticalLabelPosition=bottom;html=1;verticalAlign=top;align=center;strokeColor=#b85450;fillColor=#f8cecc;shape=mxgraph.azure.file_2;pointerEvents=1;" vertex="1" parent="1">
          <mxGeometry x="650" y="30" width="85.5" height="90" as="geometry" />
        </mxCell>
        <mxCell id="eodFmWcLu5V-pJiBf92P-11" value="&lt;div&gt;USUARIO_ROUTER&lt;/div&gt;" style="verticalLabelPosition=bottom;html=1;verticalAlign=top;align=center;strokeColor=none;fillColor=#00BEF2;shape=mxgraph.azure.file_2;pointerEvents=1;" vertex="1" parent="1">
          <mxGeometry x="430" y="30" width="85.5" height="90" as="geometry" />
        </mxCell>
        <mxCell id="eodFmWcLu5V-pJiBf92P-17" style="edgeStyle=orthogonalEdgeStyle;rounded=0;orthogonalLoop=1;jettySize=auto;html=1;exitX=0.5;exitY=0;exitDx=0;exitDy=0;exitPerimeter=0;" edge="1" parent="1" source="eodFmWcLu5V-pJiBf92P-16" target="eodFmWcLu5V-pJiBf92P-6">
          <mxGeometry relative="1" as="geometry" />
        </mxCell>
        <mxCell id="eodFmWcLu5V-pJiBf92P-8" value="USUARIO_MODEL" style="verticalLabelPosition=bottom;html=1;verticalAlign=top;align=center;shape=mxgraph.azure.file_2;pointerEvents=1;fillStyle=solid;fillColor=#f8cecc;strokeColor=#b85450;" vertex="1" parent="1">
          <mxGeometry x="650" y="160" width="85.5" height="90" as="geometry" />
        </mxCell>
        <mxCell id="eodFmWcLu5V-pJiBf92P-10" value="USUARIO_DAO" style="verticalLabelPosition=bottom;html=1;verticalAlign=top;align=center;strokeColor=#b85450;fillColor=#f8cecc;shape=mxgraph.azure.file_2;pointerEvents=1;" vertex="1" parent="1">
          <mxGeometry x="650" y="290" width="85.5" height="90" as="geometry" />
        </mxCell>
        <mxCell id="eodFmWcLu5V-pJiBf92P-16" value="CONEXAO&lt;div&gt;&lt;br&gt;&lt;/div&gt;" style="verticalLabelPosition=bottom;html=1;verticalAlign=top;align=center;strokeColor=#b85450;fillColor=#f8cecc;shape=mxgraph.azure.file_2;pointerEvents=1;" vertex="1" parent="1">
          <mxGeometry x="650" y="420" width="85.5" height="90" as="geometry" />
        </mxCell>
      </root>
    </mxGraphModel>
  </diagram>
</mxfile>
